# Blender v2.91.2 OBJ File: 'Moving Beam.blend'
# www.blender.org
mtllib Head.mtl
o Head_Cylinder
v -0.000000 0.080837 -0.124829
v -0.000000 0.089745 -0.113175
v 0.031033 0.074664 -0.124829
v 0.034441 0.082894 -0.113175
v 0.057341 0.057086 -0.124829
v 0.063640 0.063385 -0.113175
v 0.074919 0.030778 -0.124829
v 0.083149 0.034187 -0.113175
v 0.081092 -0.000255 -0.124829
v 0.090000 -0.000255 -0.113175
v 0.074919 -0.031287 -0.124829
v 0.083149 -0.034696 -0.113175
v 0.057341 -0.057596 -0.124829
v 0.063640 -0.063895 -0.113175
v 0.031033 -0.075174 -0.124829
v 0.034442 -0.083404 -0.113175
v 0.000000 -0.081347 -0.124829
v 0.000000 -0.090255 -0.113175
v -0.031033 -0.075174 -0.124829
v -0.034441 -0.083404 -0.113175
v -0.057341 -0.057596 -0.124829
v -0.063640 -0.063895 -0.113175
v -0.074919 -0.031287 -0.124829
v -0.083149 -0.034696 -0.113175
v -0.081092 -0.000255 -0.124829
v -0.090000 -0.000255 -0.113175
v -0.074919 0.030778 -0.124829
v -0.083149 0.034187 -0.113175
v -0.057341 0.057086 -0.124829
v -0.063640 0.063385 -0.113175
v -0.031033 0.074664 -0.124829
v -0.034441 0.082894 -0.113175
v 0.021622 0.055833 0.118745
v -0.000000 0.058403 0.118745
v 0.039952 0.047492 0.118745
v 0.052200 0.025585 0.118745
v 0.056501 -0.000255 0.118745
v 0.052200 -0.026095 0.118745
v 0.039952 -0.048002 0.118745
v 0.021622 -0.056343 0.118745
v 0.000000 -0.058913 0.118745
v -0.021622 -0.056343 0.118745
v -0.039952 -0.048002 0.118745
v -0.052200 -0.026095 0.118745
v -0.056501 -0.000255 0.118745
v -0.052200 0.025585 0.118745
v -0.039952 0.047492 0.118745
v -0.021622 0.055833 0.118745
v 0.095330 0.039232 -0.051502
v 0.103185 -0.000255 -0.051502
v 0.000000 -0.092546 -0.040067
v -0.030885 -0.084783 -0.040067
v -0.095330 0.039232 -0.051502
v -0.057068 0.071859 -0.051502
v 0.030885 0.086034 -0.051502
v 0.057068 0.071859 -0.051502
v 0.057068 -0.072368 -0.040067
v 0.030885 -0.084783 -0.040067
v -0.095246 -0.039799 -0.040201
v -0.103185 -0.000255 -0.051502
v 0.095330 -0.039742 -0.040067
v -0.057068 -0.072368 -0.040067
v -0.030885 0.086034 -0.051502
v -0.000000 0.093797 -0.051502
v 0.094110 0.036791 0.060716
v 0.000000 -0.086912 0.047349
v -0.094110 0.036791 0.060716
v 0.024674 0.082806 0.047349
v 0.045591 -0.067064 0.047349
v -0.094110 -0.037301 0.060716
v -0.000000 0.086402 0.047320
v 0.105627 -0.000255 0.061045
v -0.024674 -0.083316 0.047349
v -0.045591 0.066555 0.047349
v 0.045591 0.066555 0.047349
v 0.024674 -0.083316 0.047349
v -0.105627 -0.000255 0.061045
v 0.094110 -0.037301 0.060716
v -0.045591 -0.067065 0.047349
v -0.024674 0.082806 0.047320
v -0.066130 0.043932 -0.124829
v -0.073394 0.048786 -0.113175
v -0.041403 0.036539 0.118745
v -0.068471 0.055545 -0.051502
v -0.057949 0.051673 0.054033
v 0.066130 0.043932 -0.124829
v 0.073394 0.048786 -0.113175
v 0.041403 0.036539 0.118745
v 0.068471 0.055545 -0.051502
v 0.057949 0.051673 0.054033
v -0.066130 -0.044442 -0.124829
v -0.073394 -0.049295 -0.113175
v -0.041403 -0.037048 0.118745
v -0.068471 -0.056055 -0.040067
v -0.057949 -0.052183 0.054033
v 0.066130 -0.044441 -0.124829
v 0.073394 -0.049295 -0.113175
v 0.041403 -0.037048 0.118745
v 0.068471 -0.056055 -0.040067
v 0.057949 -0.052183 0.054033
v -0.000000 0.089745 -0.124829
v 0.034441 0.082894 -0.124829
v 0.063640 0.063385 -0.124829
v 0.073394 0.048786 -0.124829
v 0.083149 0.034187 -0.124829
v 0.090000 -0.000255 -0.124829
v 0.083149 -0.034696 -0.124829
v 0.073394 -0.049295 -0.124829
v 0.063640 -0.063895 -0.124829
v 0.034442 -0.083404 -0.124829
v 0.000000 -0.090255 -0.124829
v -0.034441 -0.083404 -0.124829
v -0.063640 -0.063895 -0.124829
v -0.073394 -0.049295 -0.124829
v -0.083149 -0.034696 -0.124829
v -0.090000 -0.000255 -0.124829
v -0.083149 0.034187 -0.124829
v -0.073394 0.048786 -0.124829
v -0.063640 0.063385 -0.124829
v -0.034441 0.082894 -0.124829
v -0.000000 0.081551 -0.101297
v 0.031033 0.075378 -0.101297
v 0.057341 0.057800 -0.101297
v 0.066130 0.044646 -0.101297
v 0.074919 0.031492 -0.101297
v 0.081092 0.000459 -0.101297
v 0.074919 -0.030573 -0.101297
v 0.066130 -0.043727 -0.101297
v 0.057341 -0.056882 -0.101297
v 0.031033 -0.074460 -0.101297
v 0.000000 -0.080633 -0.101297
v -0.031033 -0.074460 -0.101297
v -0.057341 -0.056882 -0.101297
v -0.066130 -0.043728 -0.101297
v -0.074919 -0.030573 -0.101297
v -0.081092 0.000459 -0.101297
v -0.074919 0.031492 -0.101297
v -0.066130 0.044646 -0.101297
v -0.057341 0.057800 -0.101297
v -0.031033 0.075378 -0.101297
v 0.111924 -0.000268 0.040179
v 0.111191 -0.000039 -0.042218
v -0.111924 -0.000268 0.040179
v -0.111191 -0.000039 -0.042218
v -0.111558 -0.000154 -0.001019
v -0.109976 0.020755 -0.042215
v -0.110021 -0.020952 -0.038149
v -0.109100 0.038867 -0.001013
v -0.109136 -0.039457 0.003418
v -0.110681 0.017959 0.040182
v -0.110680 -0.018495 0.040179
v -0.110328 -0.019779 0.001074
v -0.110329 0.019357 -0.001016
v 0.111558 -0.000154 -0.001019
v 0.109098 -0.039403 0.003167
v 0.109975 -0.021062 -0.038032
v 0.109976 0.020755 -0.042215
v 0.109099 0.038867 -0.001013
v 0.110680 -0.018495 0.040179
v 0.110681 0.017959 0.040182
v 0.110329 0.019357 -0.001016
v 0.110328 -0.019778 0.001074
vt 1.000000 0.500000
vt 1.000000 1.000000
vt 0.937500 1.000000
vt 0.937500 0.500000
vt 0.875000 1.000000
vt 0.875000 0.500000
vt 0.843750 0.500000
vt 0.843750 1.000000
vt 0.812500 1.000000
vt 0.812500 0.500000
vt 0.750000 1.000000
vt 0.750000 0.500000
vt 0.687500 1.000000
vt 0.687500 0.500000
vt 0.656250 0.500000
vt 0.656250 1.000000
vt 0.625000 1.000000
vt 0.625000 0.500000
vt 0.562500 1.000000
vt 0.562500 0.500000
vt 0.500000 1.000000
vt 0.500000 0.500000
vt 0.437500 1.000000
vt 0.437500 0.500000
vt 0.375000 1.000000
vt 0.375000 0.500000
vt 0.343750 0.500000
vt 0.343750 1.000000
vt 0.312500 1.000000
vt 0.312500 0.500000
vt 0.250000 1.000000
vt 0.250000 0.500000
vt 0.187500 1.000000
vt 0.187500 0.500000
vt 0.156250 0.500000
vt 0.156250 1.000000
vt 0.125000 1.000000
vt 0.125000 0.500000
vt 0.750000 1.000000
vt 0.812500 1.000000
vt 0.812500 1.000000
vt 0.750000 1.000000
vt 0.062500 1.000000
vt 0.062500 0.500000
vt 0.000000 1.000000
vt 0.000000 0.500000
vt 0.554282 0.380775
vt 0.580294 0.419706
vt 0.580294 0.419706
vt 0.554282 0.380775
vt 0.341844 0.471731
vt 0.250000 0.490000
vt 0.158156 0.471731
vt 0.080294 0.419706
vt 0.054282 0.380775
vt 0.028269 0.341844
vt 0.010000 0.250000
vt 0.028269 0.158156
vt 0.054282 0.119225
vt 0.080294 0.080294
vt 0.158156 0.028269
vt 0.250000 0.010000
vt 0.341844 0.028269
vt 0.419706 0.080294
vt 0.445718 0.119225
vt 0.471731 0.158156
vt 0.490000 0.250000
vt 0.471731 0.341844
vt 0.445718 0.380775
vt 0.419706 0.419706
vt 0.437500 1.000000
vt 0.500000 1.000000
vt 0.500000 1.000000
vt 0.437500 1.000000
vt 0.156250 1.000000
vt 0.187500 1.000000
vt 0.187500 1.000000
vt 0.156250 1.000000
vt 0.875000 1.000000
vt 0.937500 1.000000
vt 0.937500 1.000000
vt 0.875000 1.000000
vt 0.562500 1.000000
vt 0.625000 1.000000
vt 0.625000 1.000000
vt 0.562500 1.000000
vt 0.250000 1.000000
vt 0.312500 1.000000
vt 0.312500 1.000000
vt 0.250000 1.000000
vt 0.687500 1.000000
vt 0.687500 1.000000
vt 0.375000 1.000000
vt 0.375000 1.000000
vt 0.062500 1.000000
vt 0.125000 1.000000
vt 0.125000 1.000000
vt 0.062500 1.000000
vt 0.843750 1.000000
vt 0.843750 1.000000
vt 1.000000 1.000000
vt 1.000000 1.000000
vt 0.656250 1.000000
vt 0.656250 1.000000
vt 0.343750 1.000000
vt 0.343750 1.000000
vt 0.000000 1.000000
vt 0.000000 1.000000
vt 0.062500 1.000000
vt 0.000000 1.000000
vt 0.375000 1.000000
vt 0.343750 1.000000
vt 0.687500 1.000000
vt 0.656250 1.000000
vt 0.250000 1.000000
vt 0.187500 1.000000
vt 1.000000 1.000000
vt 0.937500 1.000000
vt 0.562500 1.000000
vt 0.500000 1.000000
vt 0.875000 1.000000
vt 0.843750 1.000000
vt 0.125000 1.000000
vt 0.437500 1.000000
vt 0.750000 1.000000
vt 0.312500 1.000000
vt 0.625000 1.000000
vt 0.156250 1.000000
vt 0.812500 1.000000
vt 0.750000 1.000000
vt 0.781250 1.000000
vt 0.812500 1.000000
vt 0.781250 1.000000
vt 0.750000 1.000000
vt 0.841844 0.471731
vt 0.750000 0.490000
vt 0.750000 0.490000
vt 0.841844 0.471731
vt 0.919706 0.419706
vt 0.919706 0.419706
vt 0.971731 0.341844
vt 0.945718 0.380775
vt 0.945718 0.380775
vt 0.971731 0.341844
vt 0.990000 0.250000
vt 0.990000 0.250000
vt 0.971731 0.158156
vt 0.971731 0.158156
vt 0.919706 0.080294
vt 0.945718 0.119225
vt 0.945718 0.119225
vt 0.919706 0.080294
vt 0.841844 0.028269
vt 0.841844 0.028269
vt 0.750000 0.010000
vt 0.750000 0.010000
vt 0.658156 0.028269
vt 0.658156 0.028269
vt 0.580294 0.080294
vt 0.580294 0.080294
vt 0.528269 0.158156
vt 0.554282 0.119225
vt 0.554282 0.119225
vt 0.528269 0.158156
vt 0.510000 0.250000
vt 0.510000 0.250000
vt 0.528269 0.341844
vt 0.528269 0.341844
vt 0.554282 0.380775
vt 0.580294 0.419706
vt 0.658156 0.471731
vt 0.658156 0.471731
vt 0.841844 0.028269
vt 0.919706 0.080294
vt 0.658156 0.471731
vt 0.750000 0.010000
vt 0.841844 0.471731
vt 0.750000 0.490000
vt 0.658156 0.028269
vt 0.919706 0.419706
vt 0.528269 0.341844
vt 0.580294 0.080294
vt 0.971731 0.341844
vt 0.945718 0.380775
vt 0.528269 0.158156
vt 0.554282 0.119225
vt 0.990000 0.250000
vt 0.510000 0.250000
vt 0.971731 0.158156
vt 0.945718 0.119225
vt 0.218750 1.000000
vt 0.250000 1.000000
vt 0.250000 1.000000
vt 0.218750 1.000000
vt 0.718750 1.000000
vt 0.750000 1.000000
vt 0.718750 1.000000
vt 0.281250 1.000000
vt 0.312500 1.000000
vt 0.281250 1.000000
vt 0.781250 1.000000
vt 0.687500 1.000000
vt 0.250000 1.000000
vt 0.218750 1.000000
vt 0.281250 1.000000
vt 0.000000 0.000000
vt 0.000000 0.000000
vt 0.000000 0.000000
vt 0.000000 0.000000
vt 0.000000 0.000000
vt 0.000000 0.000000
vt 0.187500 1.000000
vt 0.000000 0.000000
vt 0.000000 0.000000
vt 0.000000 0.000000
vt 0.000000 0.000000
vt 0.718750 1.000000
vt 0.000000 0.000000
vt 0.000000 0.000000
vt 0.000000 0.000000
vt 0.000000 0.000000
vt 0.000000 0.000000
vt 0.000000 0.000000
vt 0.000000 0.000000
vt 0.000000 0.000000
vt 0.000000 0.000000
vt 0.000000 0.000000
vn 0.1951 0.9808 0.0000
vn 0.5556 0.8315 0.0000
vn 0.8315 0.5556 0.0000
vn 0.9808 0.1951 0.0000
vn 0.9808 -0.1951 0.0000
vn 0.8315 -0.5556 0.0000
vn 0.5556 -0.8315 0.0000
vn 0.1951 -0.9808 0.0000
vn -0.1951 -0.9808 0.0000
vn -0.5556 -0.8315 0.0000
vn -0.8315 -0.5556 0.0000
vn -0.9808 -0.1951 0.0000
vn -0.9808 0.1951 0.0000
vn -0.8315 0.5556 0.0000
vn 0.7617 0.1948 0.6180
vn -0.5556 0.8315 0.0000
vn -0.1951 0.9808 0.0000
vn 0.8314 -0.5555 0.0169
vn -0.0000 0.0000 1.0000
vn -0.1232 -0.9252 0.3588
vn -0.4061 0.8345 0.3725
vn 0.5078 0.8104 0.2922
vn 0.5078 -0.8104 0.2922
vn -0.7617 -0.1948 0.6180
vn 0.7617 -0.1948 0.6180
vn -0.5078 -0.8104 0.2922
vn -0.5077 0.8105 0.2921
vn 0.8216 0.5067 0.2612
vn 0.1232 -0.9252 0.3588
vn 0.1230 0.9253 0.3588
vn -0.7617 0.1948 0.6180
vn 0.4061 -0.8345 0.3725
vn -0.8216 -0.5067 0.2612
vn -0.1232 0.9253 0.3587
vn -0.2180 0.9746 -0.0505
vn -0.8252 -0.5648 0.0060
vn 0.6423 -0.7608 -0.0933
vn -0.9599 0.1909 -0.2052
vn 0.2180 0.9746 -0.0505
vn 0.2183 -0.9757 -0.0192
vn 0.8252 0.5648 0.0071
vn -0.5193 0.8538 -0.0378
vn -0.4993 -0.8661 -0.0238
vn 0.9572 -0.2195 -0.1884
vn -0.9572 -0.2201 -0.1881
vn 0.4993 -0.8661 -0.0238
vn 0.5193 0.8538 -0.0378
vn -0.6412 0.7594 -0.1104
vn -0.2183 -0.9757 -0.0192
vn 0.9599 0.1909 -0.2052
vn -0.2000 0.9780 0.0589
vn -0.7761 -0.6180 0.1253
vn 0.4382 -0.8972 0.0555
vn 0.8932 0.2085 0.3984
vn 0.1999 0.9780 0.0588
vn 0.2001 -0.9787 0.0469
vn 0.7789 0.6172 0.1115
vn -0.5407 0.8370 0.0845
vn -0.5180 -0.8511 0.0854
vn -0.0511 0.9985 0.0212
vn 0.5180 -0.8511 0.0854
vn 0.5407 0.8370 0.0845
vn -0.4388 0.8972 0.0497
vn -0.2001 -0.9787 0.0469
vn 0.6786 0.1021 -0.7273
vn -0.7789 0.6172 0.1115
vn -0.8252 0.5648 0.0071
vn -0.8216 0.5067 0.2612
vn 0.4388 0.8972 0.0497
vn 0.6412 0.7594 -0.1104
vn 0.4061 0.8345 0.3725
vn -0.4381 -0.8972 0.0555
vn -0.6423 -0.7608 -0.0933
vn -0.4061 -0.8345 0.3725
vn 0.7761 -0.6180 0.1253
vn 0.8252 -0.5648 0.0060
vn 0.8216 -0.5067 0.2612
vn 0.0000 0.0000 -1.0000
vn -0.5554 0.8312 -0.0252
vn 0.5554 -0.8312 0.0252
vn -0.1950 0.9804 -0.0297
vn -0.1950 -0.9804 0.0297
vn 0.1950 -0.9804 0.0297
vn 0.1950 0.9804 -0.0297
vn -0.5554 -0.8312 0.0252
vn 0.5554 0.8312 -0.0252
vn -0.8314 -0.5555 0.0169
vn 0.8314 0.5555 -0.0169
vn -0.9808 -0.1951 0.0059
vn 0.9808 0.1951 -0.0059
vn -0.9808 0.1951 -0.0059
vn -0.8314 0.5555 -0.0169
vn 0.9808 -0.1951 0.0059
vn -0.9978 0.0654 -0.0075
vn 0.9978 -0.0657 -0.0080
vn -0.9981 -0.0613 -0.0070
vn 0.9980 0.0629 -0.0064
vn -0.0495 -0.9985 0.0236
vn -0.6786 0.1021 -0.7273
vn -0.6054 -0.2806 -0.7448
vn 0.8931 -0.2086 0.3986
vn -0.8431 -0.4816 0.2392
vn -0.8152 0.5364 -0.2185
vn -0.8932 0.2085 0.3984
vn -0.8931 -0.2086 0.3986
vn -0.9978 -0.0657 -0.0080
vn -0.9982 -0.0602 -0.0076
vn -0.9981 -0.0611 -0.0060
vn -0.9980 0.0629 -0.0064
vn -0.9981 0.0605 -0.0076
vn -0.7761 -0.5820 -0.2426
vn 0.0512 -0.9984 0.0241
vn 0.9978 0.0654 -0.0075
vn -0.8388 0.4978 0.2204
vn 0.0511 0.9985 0.0212
vn 0.9981 0.0605 -0.0076
vn 0.9980 -0.0633 -0.0069
vn 0.9981 -0.0613 -0.0080
vn 0.6070 -0.2827 -0.7427
vn 0.8426 -0.4835 0.2371
vn 0.8152 0.5364 -0.2185
vn 0.8388 0.4978 0.2204
vn 0.7761 -0.5820 -0.2426
usemtl MovingBeam
s off
f 101/1/1 2/2/1 4/3/1 102/4/1
f 102/4/2 4/3/2 6/5/2 103/6/2
f 104/7/3 87/8/3 8/9/3 105/10/3
f 105/10/4 8/9/4 10/11/4 106/12/4
f 106/12/5 10/11/5 12/13/5 107/14/5
f 108/15/6 97/16/6 14/17/6 109/18/6
f 109/18/7 14/17/7 16/19/7 110/20/7
f 110/20/8 16/19/8 18/21/8 111/22/8
f 111/22/9 18/21/9 20/23/9 112/24/9
f 112/24/10 20/23/10 22/25/10 113/26/10
f 114/27/11 92/28/11 24/29/11 115/30/11
f 115/30/12 24/29/12 26/31/12 116/32/12
f 116/32/13 26/31/13 28/33/13 117/34/13
f 118/35/14 82/36/14 30/37/14 119/38/14
f 72/39/15 65/40/15 36/41/15 37/42/15
f 119/38/16 30/37/16 32/43/16 120/44/16
f 120/44/17 32/43/17 2/45/17 101/46/17
f 81/47/18 29/48/18 139/49/18 138/50/18
f 33/51/19 34/52/19 48/53/19 47/54/19 83/55/19 46/56/19 45/57/19 44/58/19 93/59/19 43/60/19 42/61/19 41/62/19 40/63/19 39/64/19 98/65/19 38/66/19 37/67/19 36/68/19 88/69/19 35/70/19
f 73/71/20 66/72/20 41/73/20 42/74/20
f 85/75/21 67/76/21 46/77/21 83/78/21
f 75/79/22 68/80/22 33/81/22 35/82/22
f 76/83/23 69/84/23 39/85/23 40/86/23
f 77/87/24 70/88/24 44/89/24 45/90/24
f 78/91/25 72/39/25 37/42/25 38/92/25
f 79/93/26 73/71/26 42/74/26 43/94/26
f 80/95/27 74/96/27 47/97/27 48/98/27
f 90/99/28 75/79/28 35/82/28 88/100/28
f 66/72/29 76/83/29 40/86/29 41/73/29
f 68/80/30 71/101/30 34/102/30 33/81/30
f 67/76/31 77/87/31 45/90/31 46/77/31
f 100/103/32 78/91/32 38/92/32 98/104/32
f 95/105/33 79/93/33 43/94/33 93/106/33
f 71/107/34 80/95/34 48/98/34 34/108/34
f 2/45/35 32/43/35 63/109/35 64/110/35
f 92/28/36 22/25/36 62/111/36 94/112/36
f 97/16/37 12/13/37 61/113/37 99/114/37
f 28/33/38 26/31/38 60/115/38 53/116/38
f 4/3/39 2/2/39 64/117/39 55/118/39
f 18/21/40 16/19/40 58/119/40 51/120/40
f 87/8/41 6/5/41 56/121/41 89/122/41
f 32/43/42 30/37/42 54/123/42 63/109/42
f 22/25/43 20/23/43 52/124/43 62/111/43
f 12/13/44 10/11/44 50/125/44 61/113/44
f 26/31/45 24/29/45 59/126/45 60/115/45
f 16/19/46 14/17/46 57/127/46 58/119/46
f 6/5/47 4/3/47 55/118/47 56/121/47
f 82/36/48 28/33/48 53/116/48 84/128/48
f 20/23/49 18/21/49 51/120/49 52/124/49
f 10/11/50 8/9/50 49/129/50 50/125/50
f 64/110/51 63/109/51 80/95/51 71/107/51
f 94/112/52 62/111/52 79/93/52 95/105/52
f 99/114/53 61/113/53 78/91/53 100/103/53
f 65/40/54 72/39/54 141/130/54 160/131/54
f 55/118/55 64/117/55 71/101/55 68/80/55
f 51/120/56 58/119/56 76/83/56 66/72/56
f 89/122/57 56/121/57 75/79/57 90/99/57
f 63/109/58 54/123/58 74/96/58 80/95/58
f 62/111/59 52/124/59 73/71/59 79/93/59
f 49/129/60 65/40/60 158/132/60
f 58/119/61 57/127/61 69/84/61 76/83/61
f 56/121/62 55/118/62 68/80/62 75/79/62
f 84/128/63 53/116/63 67/76/63 85/75/63
f 52/124/64 51/120/64 66/72/64 73/71/64
f 50/125/65 49/129/65 157/133/65 142/134/65
f 54/123/66 84/128/66 85/75/66 74/96/66
f 30/37/67 82/36/67 84/128/67 54/123/67
f 74/96/68 85/75/68 83/78/68 47/97/68
f 117/34/14 28/33/14 82/36/14 118/35/14
f 49/129/69 89/122/69 90/99/69 65/40/69
f 8/9/70 87/8/70 89/122/70 49/129/70
f 65/40/71 90/99/71 88/100/71 36/41/71
f 103/6/3 6/5/3 87/8/3 104/7/3
f 59/126/72 94/112/72 95/105/72 70/88/72
f 24/29/73 92/28/73 94/112/73 59/126/73
f 70/88/74 95/105/74 93/106/74 44/89/74
f 113/26/11 22/25/11 92/28/11 114/27/11
f 57/127/75 99/114/75 100/103/75 69/84/75
f 14/17/76 97/16/76 99/114/76 57/127/76
f 69/84/77 100/103/77 98/104/77 39/85/77
f 107/14/6 12/13/6 97/16/6 108/15/6
f 3/135/78 1/136/78 101/137/78 102/138/78
f 5/139/78 3/135/78 102/138/78 103/140/78
f 7/141/78 86/142/78 104/143/78 105/144/78
f 9/145/78 7/141/78 105/144/78 106/146/78
f 11/147/78 9/145/78 106/146/78 107/148/78
f 13/149/78 96/150/78 108/151/78 109/152/78
f 15/153/78 13/149/78 109/152/78 110/154/78
f 17/155/78 15/153/78 110/154/78 111/156/78
f 19/157/78 17/155/78 111/156/78 112/158/78
f 21/159/78 19/157/78 112/158/78 113/160/78
f 23/161/78 91/162/78 114/163/78 115/164/78
f 25/165/78 23/161/78 115/164/78 116/166/78
f 27/167/78 25/165/78 116/166/78 117/168/78
f 29/48/78 81/47/78 118/169/78 119/170/78
f 31/171/78 29/48/78 119/170/78 120/172/78
f 1/136/78 31/171/78 120/172/78 101/137/78
f 81/47/78 27/167/78 117/168/78 118/169/78
f 86/142/78 5/139/78 103/140/78 104/143/78
f 91/162/78 21/159/78 113/160/78 114/163/78
f 96/150/78 11/147/78 107/148/78 108/151/78
f 13/149/79 15/153/79 130/173/79 129/174/79
f 29/48/80 31/171/80 140/175/80 139/49/80
f 15/153/81 17/155/81 131/176/81 130/173/81
f 1/136/82 3/135/82 122/177/82 121/178/82
f 31/171/83 1/136/83 121/178/83 140/175/83
f 17/155/84 19/157/84 132/179/84 131/176/84
f 3/135/85 5/139/85 123/180/85 122/177/85
f 27/167/18 81/47/18 138/50/18 137/181/18
f 19/157/86 21/159/86 133/182/86 132/179/86
f 86/142/87 7/141/87 125/183/87 124/184/87
f 5/139/87 86/142/87 124/184/87 123/180/87
f 91/162/88 23/161/88 135/185/88 134/186/88
f 7/141/89 9/145/89 126/187/89 125/183/89
f 21/159/88 91/162/88 134/186/88 133/182/88
f 23/161/90 25/165/90 136/188/90 135/185/90
f 9/145/91 11/147/91 127/189/91 126/187/91
f 11/147/92 96/150/92 128/190/92 127/189/92
f 25/165/93 27/167/93 137/181/93 136/188/93
f 96/150/92 13/149/92 129/174/92 128/190/92
f 153/191/94 145/192/94 143/193/94 150/194/94
f 162/195/95 154/196/95 141/130/95 159/197/95
f 152/198/96 149/199/96 151/200/96
f 161/201/97 158/132/97 160/131/97
f 78/91/98 61/113/98 155/202/98
f 53/116/99 60/115/99 144/203/99 146/204/99
f 60/115/100 59/126/100 147/205/100 144/203/100
f 72/39/101 78/91/101 159/197/101 141/130/101
f 151/206/102 149/207/102 70/208/102
f 146/209/103 148/210/103 53/211/103
f 77/87/104 67/76/104 150/194/104 143/193/104
f 70/88/105 77/87/105 143/193/105 151/200/105
f 145/192/106 152/198/106 151/200/106 143/193/106
f 144/203/107 147/205/107 152/198/107 145/192/107
f 147/205/108 149/199/108 152/198/108
f 148/212/109 153/191/109 150/194/109
f 146/204/110 144/203/110 145/192/110 153/191/110
f 149/207/111 147/213/111 59/214/111
f 70/88/112 149/199/112 59/126/112
f 154/196/113 161/201/113 160/131/113 141/130/113
f 150/215/114 67/216/114 148/210/114
f 148/212/115 67/76/115 53/116/115
f 148/212/109 146/204/109 153/191/109
f 142/134/116 157/133/116 161/201/116 154/196/116
f 157/133/97 158/132/97 161/201/97
f 155/202/117 162/195/117 159/197/117
f 156/217/118 142/134/118 154/196/118 162/195/118
f 156/217/119 61/113/119 50/125/119 142/134/119
f 155/202/117 156/217/117 162/195/117
f 159/218/120 78/219/120 155/220/120
f 158/221/121 157/222/121 49/223/121
f 65/224/122 160/225/122 158/221/122
f 156/226/123 155/220/123 61/227/123
