<?xml version="1.0" encoding="UTF-8" standalone="no"?>
<svg
   style="clip-rule:evenodd;fill-rule:evenodd;stroke-linejoin:round;stroke-miterlimit:2"
   version="1.1"
   viewBox="0 0 180 180"
   xml:space="preserve"
   id="svg293"
   sodipodi:docname="Blender logo (without text).svg"
   width="180"
   height="180"
   inkscape:export-filename="Blender logo (without text).png"
   inkscape:export-xdpi="136.53334"
   inkscape:export-ydpi="136.53334"
   inkscape:version="1.2.2 (b0a8486541, 2022-12-01)"
   xmlns:inkscape="http://www.inkscape.org/namespaces/inkscape"
   xmlns:sodipodi="http://sodipodi.sourceforge.net/DTD/sodipodi-0.dtd"
   xmlns="http://www.w3.org/2000/svg"
   xmlns:svg="http://www.w3.org/2000/svg"><defs
   id="defs297">
        
        
    
            
        
            
            
        </defs><sodipodi:namedview
   id="namedview295"
   pagecolor="#ffffff"
   bordercolor="#000000"
   borderopacity="0.25"
   inkscape:showpageshadow="2"
   inkscape:pageopacity="0.0"
   inkscape:pagecheckerboard="0"
   inkscape:deskcolor="#d1d1d1"
   showgrid="false"
   inkscape:zoom="3.6881531"
   inkscape:cx="104.795"
   inkscape:cy="72.393958"
   inkscape:window-width="1920"
   inkscape:window-height="1160"
   inkscape:window-x="0"
   inkscape:window-y="0"
   inkscape:window-maximized="1"
   inkscape:current-layer="svg293" />
    <title
   id="title279">Blender logo (without text)</title>
    <circle
   style="fill:#000000;fill-opacity:1;stroke:none;stroke-width:24.7604;stroke-linejoin:round"
   id="path459"
   cx="90"
   cy="90"
   r="90" /><path
   d="m 65.447363,89.376668 c 0.541786,-9.660147 5.264525,-18.195832 12.420189,-24.227035 7.002329,-5.928979 16.406913,-9.557923 26.731508,-9.557923 10.27349,0 19.67808,3.623833 26.68041,9.557923 7.15566,6.031203 11.85796,14.566888 12.42019,24.227035 0.54178,9.915709 -3.45005,19.166962 -10.42683,26.015952 -7.15566,6.95122 -17.27581,11.34684 -28.67377,11.34684 -11.397941,0 -21.569207,-4.36495 -28.67376,-11.34684 C 68.922972,108.54363 64.936245,99.343487 65.498475,89.42778 Z"
   style="fill:#000000;fill-opacity:1;fill-rule:nonzero;stroke-width:5.11119"
   id="path281" /><path
   d="m 86.862298,88.193522 c 0.278418,-4.964242 2.705381,-9.350636 6.382597,-12.450004 3.59842,-3.046837 8.431325,-4.911711 13.737025,-4.911711 5.27943,0 10.11234,1.862248 13.71076,4.911711 3.67722,3.099368 6.09368,7.485762 6.3826,12.450004 0.27842,5.095575 -1.77294,9.849685 -5.35823,13.369308 -3.67722,3.57216 -8.87785,5.83102 -14.73513,5.83102 -5.85728,0 -11.084175,-2.2431 -14.735126,-5.83102 -3.598419,-3.519623 -5.647154,-8.247473 -5.35823,-13.343043 z"
   style="fill:#fffffe;fill-opacity:1;fill-rule:nonzero;stroke-width:2.62658"
   id="path285" /><path
   d="m 55.343301,98.699857 c 0.03415,1.943673 0.654019,5.725953 1.58383,8.667723 1.954178,6.25127 5.279432,12.02975 9.875952,17.09906 4.72785,5.2269 10.558864,9.42943 17.282917,12.42374 7.065509,3.12563 14.735135,4.72784 22.69367,4.72784 7.95855,-0.0105 15.62817,-1.63898 22.69368,-4.80664 6.72405,-3.02057 12.55507,-7.22311 17.28292,-12.47627 4.62278,-5.12184 7.93228,-10.90032 9.87595,-17.15159 0.98497,-3.1519 1.60747,-6.35633 1.85699,-9.560763 0.24428,-3.1519 0.14184,-6.33007 -0.30731,-9.508233 -0.87727,-6.17247 -3.02057,-11.977219 -6.3038,-17.230385 -2.9943,-4.859179 -6.88164,-9.087978 -11.50443,-12.660131 l 0.0105,-0.0079 -46.490519,-35.72153 c -0.04202,-0.03152 -0.07617,-0.06567 -0.120823,-0.09456 -3.046836,-2.342913 -8.194939,-2.335033 -11.530699,0.01313 -3.388293,2.374432 -3.78228,6.3038 -0.761709,8.772788 l -0.01313,0.01313 19.41044,15.785764 -59.098111,0.06304 h -0.0788 c -4.885444,0.0053 -9.587028,3.204432 -10.506332,7.275636 -0.956076,4.123735 2.363925,7.564559 7.459496,7.564559 l -0.0079,0.01839 29.943048,-0.05779 -53.582296,40.974695 c -0.06829,0.0499 -0.141835,0.10244 -0.204873,0.15234 -5.0430401,3.86108 -6.6715211,10.29621 -3.493356,14.34115 3.230698,4.12373 10.08608,4.15 15.181651,0.0236 L 55.645329,93.438737 c 0,0 -0.425506,3.2307 -0.391361,5.1481 z m 75.120269,10.795253 c -6.01487,6.11994 -14.4462,9.6133 -23.53418,9.6133 -9.114245,0.0158 -17.545572,-3.41456 -23.560447,-9.5345 -2.941773,-2.9943 -5.095571,-6.40886 -6.435129,-10.059813 -1.305412,-3.59842 -1.812342,-7.40697 -1.47614,-11.241778 0.317817,-3.756014 1.436741,-7.354433 3.230698,-10.58513 1.754557,-3.178165 4.176267,-6.067407 7.144306,-8.510129 5.85728,-4.754115 13.290507,-7.354433 21.065192,-7.354433 7.80095,-0.01051 15.23418,2.545159 21.09146,7.301901 2.96804,2.426963 5.3845,5.305698 7.14431,8.483864 1.79395,3.230697 2.9155,6.80285 3.23069,10.58513 0.33095,3.834815 -0.17598,7.643355 -1.48139,11.241775 -1.3343,3.677223 -3.49335,7.091773 -6.43513,10.086083 z"
   style="fill:#ffffff;fill-opacity:1;fill-rule:nonzero;stroke:none;stroke-width:2.62658"
   id="path287" />
</svg>
